<svg width="30" height="30" viewBox="0 0 50 50" fill="none" xmlns="http://www.w3.org/2000/svg">
<g clip-path="url(#clip0_307_1034)">
<path d="M35.4167 20.9146C27.3771 20.9146 20.8333 27.4562 20.8333 35.4979C20.8333 43.4937 27.3771 50 35.4167 50C43.4562 50 50 43.4583 50 35.4167C50 27.4208 43.4562 20.9146 35.4167 20.9146ZM35.4167 45.8333C29.6729 45.8333 25 41.1958 25 35.4979C25 29.7542 29.6729 25.0812 35.4167 25.0812C41.1604 25.0812 45.8333 29.7188 45.8333 35.4167C45.8333 41.1604 41.1604 45.8333 35.4167 45.8333ZM38.9729 36.0271C39.7875 36.8417 39.7875 38.1583 38.9729 38.9729C38.5667 39.3792 38.0333 39.5833 37.5 39.5833C36.9667 39.5833 36.4333 39.3792 36.0271 38.9729L33.9437 36.8896C33.5521 36.4979 33.3333 35.9688 33.3333 35.4167V31.25C33.3333 30.1 34.2646 29.1667 35.4167 29.1667C36.5687 29.1667 37.5 30.1 37.5 31.25V34.5542L38.9729 36.0271ZM50 14.5833V18.75C50 19.9 49.0687 20.8333 47.9167 20.8333C46.7646 20.8333 45.8333 19.9 45.8333 18.75V14.5833C45.8333 11.1375 43.0292 8.33333 39.5833 8.33333H10.4167C6.97083 8.33333 4.16667 11.1375 4.16667 14.5833V16.6667H22.9167C24.0667 16.6667 25 17.6 25 18.75C25 19.9 24.0667 20.8333 22.9167 20.8333H4.16667V39.5833C4.16667 43.0292 6.97083 45.8333 10.4167 45.8333H18.75C19.9 45.8333 20.8333 46.7667 20.8333 47.9167C20.8333 49.0667 19.9 50 18.75 50H10.4167C4.67292 50 0 45.3271 0 39.5833V14.5833C0 8.83958 4.67292 4.16667 10.4167 4.16667H12.5V2.08333C12.5 0.933333 13.4333 0 14.5833 0C15.7333 0 16.6667 0.933333 16.6667 2.08333V4.16667H33.3333V2.08333C33.3333 0.933333 34.2646 0 35.4167 0C36.5687 0 37.5 0.933333 37.5 2.08333V4.16667H39.5833C45.3271 4.16667 50 8.83958 50 14.5833Z" fill="black"/>
</g>
<defs>
<clipPath id="clip0_307_1034">
<rect width="50" height="50" fill="white"/>
</clipPath>
</defs>
</svg>
