<svg width="20" height="20" viewBox="0 0 30 30" fill="none" xmlns="http://www.w3.org/2000/svg">
<g clip-path="url(#clip0_307_1040)">
<path d="M9.86656 20.1266C9.13406 19.3953 9.13406 18.2066 9.86656 17.4753C10.5991 16.7428 11.7853 16.7428 12.5178 17.4753C14.1753 19.1328 17.0678 19.1341 18.7253 17.4753L24.9616 11.2391C26.6728 9.52781 26.6728 6.74281 24.9616 5.03156C23.2503 3.32031 20.4653 3.32031 18.7541 5.03156C18.0216 5.76406 16.8353 5.76406 16.1028 5.03156C15.3703 4.30031 15.3703 3.11156 16.1028 2.38031C19.2753 -0.793437 24.4403 -0.793437 27.6128 2.38031C30.7866 5.55406 30.7866 10.7166 27.6128 13.8903L21.3766 20.1266C19.7891 21.7141 17.7053 22.5066 15.6216 22.5066C13.5378 22.5066 11.4528 21.7128 9.86656 20.1266ZM8.13656 29.9928C10.2203 29.9928 12.3041 29.1991 13.8916 27.6128C14.6241 26.8816 14.6241 25.6928 13.8916 24.9616C13.1591 24.2291 11.9728 24.2291 11.2403 24.9616C9.52781 26.6741 6.74281 26.6728 5.03281 24.9616C3.32156 23.2503 3.32156 20.4653 5.03281 18.7541L11.2341 12.5528C12.9466 10.8403 15.7316 10.8403 17.4416 12.5528C18.1741 13.2853 19.3603 13.2853 20.0928 12.5528C20.8253 11.8216 20.8253 10.6328 20.0928 9.90156C16.9191 6.72781 11.7566 6.72781 8.58281 9.90156L2.38031 16.1028C-0.793438 19.2766 -0.793438 24.4391 2.38031 27.6128C3.96781 29.2003 6.05281 29.9928 8.13656 29.9928Z" fill="black"/>
</g>
<defs>
<clipPath id="clip0_307_1040">
<rect width="30" height="30" fill="white"/>
</clipPath>
</defs>
</svg>
