<svg width="48" height="48" viewBox="0 0 723 723" fill="none" xmlns="http://www.w3.org/2000/svg">
<circle cx="361.5" cy="361.5" r="361.5" fill="#262440"/>
<g filter="url(#filter0_d_6_3)">
<path d="M605.25 387.5V336C605.25 314.396 605.25 295.194 604.936 278.062H118.064C117.75 295.194 117.75 314.396 117.75 336V387.5C117.75 484.608 117.75 533.165 146.307 563.331C174.864 593.5 220.826 593.5 312.75 593.5H410.25C502.173 593.5 548.137 593.5 576.692 563.331C605.25 533.165 605.25 484.608 605.25 387.5Z" fill="#A7B1CD"/>
<path d="M257.906 91.375C257.906 80.7091 249.721 72.0625 239.625 72.0625C229.529 72.0625 221.344 80.7091 221.344 91.375V132.041C186.26 135.009 163.228 142.292 146.307 160.168C129.386 178.044 122.491 202.375 119.682 239.437H603.317C600.509 202.375 593.613 178.044 576.692 160.168C559.771 142.292 536.739 135.009 501.656 132.041V91.375C501.656 80.7091 493.471 72.0625 483.375 72.0625C473.279 72.0625 465.094 80.7091 465.094 91.375V130.332C448.877 130 430.701 130 410.25 130H312.75C292.299 130 274.122 130 257.906 130.332V91.375Z" fill="#A7B1CD"/>
</g>
<circle cx="251.5" cy="516.5" r="53.5" fill="#1A8FE3"/>
<circle cx="341" cy="430" r="100" fill="#F17105"/>
<circle cx="217.5" cy="361.5" r="68.5" fill="#E6C229"/>
<circle cx="471.5" cy="499.5" r="69.5" fill="#6610F2"/>
<circle cx="473" cy="374" r="81" fill="#D11149"/>
<g filter="url(#filter1_b_6_3)">
<circle cx="341" cy="430" r="100" fill="#F17105" fill-opacity="0.45"/>
</g>
<g filter="url(#filter2_b_6_3)">
<circle cx="471.5" cy="499.5" r="69.5" fill="#6610F2" fill-opacity="0.4"/>
</g>
<g filter="url(#filter3_b_6_3)">
<circle cx="251.5" cy="516.5" r="53.5" fill="#1A8FE3" fill-opacity="0.24"/>
</g>
<defs>
<filter id="filter0_d_6_3" x="112.75" y="68.0625" width="503.5" height="537.438" filterUnits="userSpaceOnUse" color-interpolation-filters="sRGB">
<feFlood flood-opacity="0" result="BackgroundImageFix"/>
<feColorMatrix in="SourceAlpha" type="matrix" values="0 0 0 0 0 0 0 0 0 0 0 0 0 0 0 0 0 0 127 0" result="hardAlpha"/>
<feOffset dx="3" dy="4"/>
<feGaussianBlur stdDeviation="4"/>
<feComposite in2="hardAlpha" operator="out"/>
<feColorMatrix type="matrix" values="0 0 0 0 0 0 0 0 0 0 0 0 0 0 0 0 0 0 0.33 0"/>
<feBlend mode="normal" in2="BackgroundImageFix" result="effect1_dropShadow_6_3"/>
<feBlend mode="normal" in="SourceGraphic" in2="effect1_dropShadow_6_3" result="shape"/>
</filter>
<filter id="filter1_b_6_3" x="231" y="320" width="220" height="220" filterUnits="userSpaceOnUse" color-interpolation-filters="sRGB">
<feFlood flood-opacity="0" result="BackgroundImageFix"/>
<feGaussianBlur in="BackgroundImageFix" stdDeviation="5"/>
<feComposite in2="SourceAlpha" operator="in" result="effect1_backgroundBlur_6_3"/>
<feBlend mode="normal" in="SourceGraphic" in2="effect1_backgroundBlur_6_3" result="shape"/>
</filter>
<filter id="filter2_b_6_3" x="392" y="420" width="159" height="159" filterUnits="userSpaceOnUse" color-interpolation-filters="sRGB">
<feFlood flood-opacity="0" result="BackgroundImageFix"/>
<feGaussianBlur in="BackgroundImageFix" stdDeviation="5"/>
<feComposite in2="SourceAlpha" operator="in" result="effect1_backgroundBlur_6_3"/>
<feBlend mode="normal" in="SourceGraphic" in2="effect1_backgroundBlur_6_3" result="shape"/>
</filter>
<filter id="filter3_b_6_3" x="188" y="453" width="127" height="127" filterUnits="userSpaceOnUse" color-interpolation-filters="sRGB">
<feFlood flood-opacity="0" result="BackgroundImageFix"/>
<feGaussianBlur in="BackgroundImageFix" stdDeviation="5"/>
<feComposite in2="SourceAlpha" operator="in" result="effect1_backgroundBlur_6_3"/>
<feBlend mode="normal" in="SourceGraphic" in2="effect1_backgroundBlur_6_3" result="shape"/>
</filter>
</defs>
</svg>
