<svg width="30" height="30" viewBox="0 0 50 50" fill="none" xmlns="http://www.w3.org/2000/svg">
<g clip-path="url(#clip0_307_1045)">
<path d="M24.9998 12.5C23.3517 12.5 21.7405 12.9887 20.3701 13.9044C18.9997 14.8201 17.9316 16.1216 17.3008 17.6443C16.6701 19.167 16.5051 20.8426 16.8266 22.4591C17.1482 24.0756 17.9418 25.5605 19.1073 26.7259C20.2727 27.8913 21.7576 28.685 23.3741 29.0065C24.9906 29.3281 26.6662 29.1631 28.1889 28.5323C29.7116 27.9016 31.0131 26.8335 31.9288 25.4631C32.8444 24.0927 33.3332 22.4815 33.3332 20.8333C33.3332 18.6232 32.4552 16.5036 30.8924 14.9408C29.3296 13.378 27.21 12.5 24.9998 12.5ZM24.9998 25C24.1758 25 23.3702 24.7556 22.685 24.2978C21.9998 23.84 21.4657 23.1892 21.1503 22.4278C20.835 21.6665 20.7525 20.8287 20.9132 20.0205C21.074 19.2122 21.4708 18.4698 22.0536 17.8871C22.6363 17.3043 23.3787 16.9075 24.187 16.7467C24.9952 16.586 25.833 16.6685 26.5944 16.9838C27.3557 17.2992 28.0065 17.8333 28.4643 18.5185C28.9221 19.2037 29.1665 20.0092 29.1665 20.8333C29.1665 21.9384 28.7275 22.9982 27.9461 23.7796C27.1647 24.561 26.1049 25 24.9998 25Z" fill="black"/>
<path d="M25.0002 49.9998C23.2459 50.0088 21.515 49.5973 19.9524 48.7999C18.3898 48.0025 17.041 46.8423 16.0189 45.4164C8.07933 34.4644 4.05225 26.231 4.05225 20.9435C4.05225 15.3878 6.25925 10.0596 10.1877 6.13111C14.1162 2.20261 19.4444 -0.00439453 25.0002 -0.00439453C30.5559 -0.00439453 35.8841 2.20261 39.8126 6.13111C43.7411 10.0596 45.9481 15.3878 45.9481 20.9435C45.9481 26.231 41.921 34.4644 33.9814 45.4164C32.9593 46.8423 31.6105 48.0025 30.0479 48.7999C28.4853 49.5973 26.7544 50.0088 25.0002 49.9998ZM25.0002 4.54352C20.651 4.54849 16.4814 6.27837 13.4061 9.35367C10.3308 12.429 8.60096 16.5986 8.596 20.9477C8.596 25.1352 12.5397 32.8789 19.6981 42.7519C20.3058 43.5889 21.103 44.2702 22.0246 44.7399C22.9461 45.2097 23.9658 45.4546 25.0002 45.4546C26.0345 45.4546 27.0542 45.2097 27.9758 44.7399C28.8973 44.2702 29.6945 43.5889 30.3022 42.7519C37.4606 32.8789 41.4043 25.1352 41.4043 20.9477C41.3994 16.5986 39.6695 12.429 36.5942 9.35367C33.5189 6.27837 29.3493 4.54849 25.0002 4.54352Z" fill="black"/>
</g>
<defs>
<clipPath id="clip0_307_1045">
<rect width="50" height="50" fill="white"/>
</clipPath>
</defs>
</svg>
