<svg width="550" height="277" viewBox="0 0 550 277" fill="none" xmlns="http://www.w3.org/2000/svg">
<g clip-path="url(#clip0_307_1811)">
<path d="M110.404 196.333C108.784 196.334 107.23 197.024 106.084 198.251C104.938 199.477 104.293 201.14 104.291 202.875V218.18C104.293 219.914 104.938 221.577 106.084 222.804C107.23 224.03 108.784 224.72 110.404 224.722H118.158C119.779 224.72 121.332 224.03 122.478 222.804C123.624 221.577 124.269 219.914 124.271 218.18V202.875C124.269 201.14 123.624 199.477 122.478 198.251C121.332 197.024 119.779 196.334 118.158 196.333H110.404Z" fill="#3F3D56"/>
<path d="M253.733 225.231H245.98C244.233 225.229 242.558 224.485 241.323 223.163C240.088 221.841 239.393 220.049 239.391 218.18V202.874C239.393 201.005 240.088 199.213 241.323 197.891C242.558 196.569 244.233 195.825 245.98 195.823H253.733C255.48 195.825 257.155 196.569 258.39 197.891C259.625 199.213 260.32 201.005 260.322 202.874V218.18C260.32 220.049 259.625 221.841 258.39 223.163C257.155 224.485 255.48 225.229 253.733 225.231Z" fill="#3F3D56"/>
<path d="M248.589 212.977H115.073C108.997 212.977 104.053 209.143 104.053 204.431V176.955L110.681 169.486H254.27L259.608 176.971V204.431C259.608 209.143 254.665 212.977 248.589 212.977Z" fill="#CCCCCC"/>
<path d="M253.647 183.231H111.442L109.997 159.517L110.916 157.09L116.262 143.013H247.865L255.093 158.999L253.647 183.231Z" fill="#CCCCCC"/>
<path d="M254.851 159.05L253.79 176.868H222.503V163.631L253.962 157.084L254.851 159.05Z" fill="white"/>
<path d="M142.11 163.631V176.868H111.294L110.237 159.559L111.137 157.187L142.11 163.631Z" fill="white"/>
<path d="M247.072 147.086H117.053L130.921 97.6169C131.486 95.5739 132.651 93.7797 134.243 92.4997C135.835 91.2196 137.769 90.5215 139.76 90.5086L225.867 89.6308C227.947 89.6092 229.975 90.3334 231.626 91.6879C233.278 93.0425 234.458 94.9495 234.979 97.1051L247.072 147.086Z" fill="#CCCCCC"/>
<path d="M237.063 142.408L127.041 141.012C126.902 141.01 126.766 140.973 126.642 140.905C126.519 140.836 126.412 140.738 126.331 140.617C126.249 140.496 126.196 140.356 126.174 140.209C126.152 140.062 126.163 139.912 126.205 139.77L136.753 104.553C136.81 104.361 136.923 104.194 137.075 104.075C137.227 103.956 137.411 103.892 137.599 103.892H226.092C226.28 103.892 226.463 103.956 226.616 104.075C226.768 104.194 226.881 104.361 226.938 104.553L237.92 141.166C237.963 141.31 237.973 141.462 237.951 141.611C237.928 141.76 237.872 141.901 237.789 142.022C237.705 142.143 237.595 142.241 237.469 142.309C237.343 142.376 237.204 142.41 237.063 142.408Z" fill="white"/>
<path d="M196.89 95.6675H167.235C166.985 95.6675 166.759 95.4043 166.644 94.9802C166.529 94.5461 166.546 94.0842 166.691 93.6607L169.136 87.0426C169.261 86.7053 169.465 86.5039 169.681 86.5039H194.445C194.661 86.5039 194.864 86.7053 194.989 87.0426L197.434 93.6607C197.58 94.0842 197.596 94.5461 197.482 94.9802C197.367 95.4043 197.14 95.6675 196.89 95.6675Z" fill="#2A9D8F"/>
<path d="M117.135 146.068H97.6315V141.48C97.633 139.997 98.1842 138.575 99.1642 137.526C100.144 136.477 101.473 135.887 102.859 135.886H117.135V146.068Z" fill="#CCCCCC"/>
<path d="M266.506 146.068H247.002V135.886H261.279C262.665 135.887 263.993 136.477 264.973 137.526C265.953 138.575 266.505 139.997 266.506 141.48V146.068Z" fill="#CCCCCC"/>
<path d="M95.3498 217.585L0.000610352 254.241L0.405374 255.447L95.7545 218.791L95.3498 217.585Z" fill="#3F3D56"/>
<path d="M268.187 217.588L267.782 218.793L363.134 255.441L363.539 254.235L268.187 217.588Z" fill="#3F3D56"/>
<path d="M187.367 244.166H181.66V236.278H187.367V244.166ZM187.367 228.388H181.66V220.499H187.367V228.388Z" fill="#E6E6E6"/>
<path d="M187.367 276.846H181.66V268.957H187.367V276.846ZM187.367 261.067H181.66V253.178H187.367V261.067Z" fill="#E6E6E6"/>
<path d="M438.139 249.594H431.854L428.862 223.647H438.139V249.594Z" fill="#FFB8B8"/>
<path d="M439.743 256.115H419.474V255.84C419.477 253.602 420.309 251.456 421.788 249.873C423.267 248.29 425.272 247.4 427.364 247.397H439.743L439.743 256.115Z" fill="#2F2E41"/>
<path d="M519.197 236.847L513.809 240.312L498.758 219.719L506.71 214.606L519.197 236.847Z" fill="#FFB8B8"/>
<path d="M506.336 252.724L506.204 252.489C505.129 250.569 504.81 248.271 505.316 246.099C505.822 243.927 507.112 242.059 508.904 240.904L519.515 234.081L523.71 241.553L506.336 252.724Z" fill="#2F2E41"/>
<path d="M439.774 244.239L439.665 244.239C436.607 244.228 433.552 244.04 430.514 243.675C429.355 243.553 428.099 243.42 426.585 243.287L426.533 243.276C425.5 242.948 425.472 232.582 425.91 197.099C426.134 178.925 426.388 158.326 426.085 145.208L426.082 145.079L426.173 144.994C437.386 134.557 451.786 130.645 466.721 133.978L466.831 134.002L466.889 134.107C473.067 145.293 482.394 161.406 491.415 176.99C512.122 212.761 518.044 223.282 517.395 224.075L517.317 224.14C515.903 224.897 514.842 225.479 513.939 225.975C510.917 227.633 509.666 228.319 502.944 231.281L502.778 231.355L502.657 231.213C481.646 206.574 464.161 179.05 453.346 153.607C452.083 162.293 450.549 173.636 448.928 185.62C444.267 220.082 441.118 242.775 439.849 244.156L439.774 244.239Z" fill="#2F2E41"/>
<path d="M472.407 35.1802C474.523 25.8301 476.316 15.2842 472.325 6.67264C469.557 0.69752 459.313 -1.31464 453.442 0.837962C447.57 2.99056 443.324 8.83073 441.457 15.1984C439.59 21.566 439.807 28.4276 440.621 35.0472C451.42 34.8251 462.219 34.6031 472.407 35.1802Z" fill="#2F2E41"/>
<path d="M454.184 35.1775C461.138 35.1775 466.776 29.1438 466.776 21.7008C466.776 14.2578 461.138 8.22412 454.184 8.22412C447.229 8.22412 441.591 14.2578 441.591 21.7008C441.591 29.1438 447.229 35.1775 454.184 35.1775Z" fill="#FFB8B8"/>
<path d="M469.578 18.925C469.618 16.6568 469.232 14.4031 468.442 12.2979C467.652 10.1927 466.475 8.27891 464.98 6.67022C463.485 5.06153 461.704 3.79078 459.741 2.93347C457.779 2.07616 455.675 1.64979 453.555 1.67969C451.436 1.7096 449.343 2.19517 447.403 3.10755C445.462 4.01992 443.712 5.34049 442.258 6.99079C440.803 8.64109 439.673 10.5874 438.936 12.7142C438.198 14.841 437.867 17.1047 437.963 19.371C448.742 19.3955 459.52 19.42 469.578 18.925Z" fill="#2F2E41"/>
<path d="M445.435 147.859C457.963 147.799 470.409 150.029 482.236 154.453C482.648 133.21 475.814 111.927 463.457 96.005L463.365 95.8861L463.412 95.74C466.712 85.5341 470.124 74.985 473.172 64.4882L473.126 64.3119C470.988 56.1781 466.399 47.9588 459.098 39.1839C458.306 38.3057 457.231 37.7827 456.092 37.721C454.953 37.6593 453.835 38.0634 452.964 38.8514C439.985 51.584 432.928 70.6616 434.547 88.6396L434.552 88.6924L434.538 88.7436C428.82 109.473 426.745 120.12 424.914 129.514C423.578 136.366 422.421 142.3 420.099 150.778C428.423 148.84 436.916 147.861 445.435 147.859Z" fill="#3F3D56"/>
<path opacity="0.1" d="M463.88 82.3301L445.281 125.665L434.655 114.155L463.88 82.3301Z" fill="black"/>
<path d="M422.132 106.4L423.428 109.097C423.44 109.122 423.443 109.151 423.435 109.178C423.427 109.204 423.409 109.226 423.386 109.239L423.323 109.274L430.079 123.321C430.266 123.71 430.301 124.162 430.176 124.579C430.051 124.995 429.777 125.341 429.414 125.541L421.212 130.059C421.032 130.158 420.836 130.218 420.634 130.236C420.433 130.254 420.23 130.229 420.037 130.163C419.845 130.097 419.666 129.991 419.512 129.851C419.358 129.711 419.231 129.54 419.138 129.347L412.619 115.792L412.574 115.817C412.558 115.826 412.539 115.828 412.521 115.822C412.503 115.816 412.489 115.803 412.48 115.785L411.742 114.251C411.738 114.242 411.735 114.232 411.735 114.223C411.734 114.213 411.735 114.203 411.738 114.194C411.741 114.184 411.745 114.176 411.751 114.168C411.757 114.161 411.764 114.154 411.772 114.15L411.818 114.125L411.54 113.547L411.494 113.572C411.477 113.582 411.457 113.583 411.438 113.577C411.42 113.57 411.404 113.557 411.396 113.538L410.668 112.024C410.659 112.006 410.657 111.984 410.663 111.965C410.669 111.945 410.682 111.929 410.699 111.919L410.745 111.894L410.365 111.105L410.319 111.131C410.304 111.139 410.286 111.141 410.269 111.135C410.253 111.129 410.24 111.117 410.232 111.101L409.834 110.275C409.826 110.258 409.825 110.239 409.83 110.222C409.835 110.204 409.847 110.189 409.862 110.181L409.909 110.155L409.104 108.483C408.917 108.094 408.882 107.642 409.007 107.226C409.132 106.809 409.406 106.463 409.769 106.263L417.971 101.746C418.334 101.546 418.756 101.508 419.145 101.642C419.534 101.775 419.858 102.068 420.045 102.457L421.936 106.389L421.999 106.355C422.022 106.342 422.049 106.34 422.074 106.348C422.099 106.357 422.12 106.375 422.132 106.4Z" fill="#3F3D56"/>
<path d="M419.529 103.107L429.482 123.804C429.6 124.05 429.622 124.337 429.543 124.601C429.464 124.865 429.29 125.085 429.06 125.212L421.208 129.536C420.978 129.663 420.711 129.688 420.464 129.603C420.218 129.519 420.013 129.334 419.894 129.088L419.892 129.085L409.939 108.389C409.881 108.267 409.845 108.134 409.834 107.997C409.824 107.86 409.839 107.722 409.878 107.591C409.917 107.46 409.98 107.339 410.063 107.234C410.146 107.13 410.247 107.043 410.361 106.98L411.536 106.333L411.614 106.495C411.662 106.595 411.729 106.684 411.809 106.758C411.89 106.831 411.983 106.886 412.084 106.921C412.184 106.955 412.29 106.968 412.396 106.959C412.501 106.949 412.604 106.918 412.698 106.866L416.691 104.667C416.88 104.562 417.023 104.382 417.089 104.164C417.154 103.947 417.135 103.71 417.038 103.507L416.96 103.346L418.212 102.656C418.443 102.529 418.711 102.505 418.958 102.59C419.204 102.674 419.41 102.86 419.528 103.107L419.529 103.107Z" fill="#2A9D8F"/>
<path d="M422.413 128.392C423.165 128.336 423.896 128.104 424.556 127.713C425.215 127.322 425.786 126.781 426.228 126.128C426.671 125.475 426.975 124.726 427.117 123.934C427.26 123.142 427.239 122.326 427.056 121.544L442.381 110.798L433.641 106.757L420.428 117.581C419.22 117.998 418.197 118.875 417.553 120.045C416.909 121.215 416.689 122.598 416.934 123.93C417.178 125.263 417.871 126.453 418.881 127.275C419.891 128.098 421.148 128.495 422.413 128.392Z" fill="#FFB8B8"/>
<path d="M437.16 120.651L436.966 120.505C433.319 117.632 429.27 114.661 425.354 111.788L425.119 111.615L425.304 111.383C433.662 100.918 442.029 89.9872 450.122 79.4129C450.116 79.396 450.111 79.3837 450.106 79.3749L450.183 79.3333L450.215 79.2913L450.232 79.3065L450.281 79.28L450.061 79.2982L447.566 58.364C445.313 55.0747 444.882 48.5442 447.834 43.9855C450.893 39.2631 457.363 37.6826 461.681 40.6019C462.812 41.4147 463.758 42.4893 464.449 43.7463C465.14 45.0032 465.557 46.4103 465.671 47.8634C465.831 49.1579 465.72 50.4744 465.344 51.7168C464.968 52.9592 464.338 54.0961 463.499 55.0444C464.559 66.1232 464.6 76.0259 464.639 85.6045L464.639 85.7002L464.584 85.779C455.957 97.5091 446.48 109.177 437.315 120.46L437.16 120.651Z" fill="#3F3D56"/>
<path d="M181.897 63.5011C197.535 63.5011 210.212 49.9344 210.212 33.199C210.212 16.4637 197.535 2.89697 181.897 2.89697C166.259 2.89697 153.582 16.4637 153.582 33.199C153.582 49.9344 166.259 63.5011 181.897 63.5011Z" fill="#2A9D8F"/>
<path d="M179.198 45.9901L170.724 34.3287L175.652 30.2265L179.665 35.748L193.22 20.4336L197.754 25.0298L179.198 45.9901Z" fill="white"/>
<path d="M549.401 256.95H406.3C406.141 256.95 405.989 256.882 405.877 256.762C405.765 256.642 405.702 256.479 405.702 256.309C405.702 256.139 405.765 255.976 405.877 255.856C405.989 255.735 406.141 255.668 406.3 255.668H549.401C549.56 255.668 549.712 255.735 549.825 255.856C549.937 255.976 550 256.139 550 256.309C550 256.479 549.937 256.642 549.825 256.762C549.712 256.882 549.56 256.95 549.401 256.95Z" fill="#3F3D56"/>
</g>
<defs>
<clipPath id="clip0_307_1811">
<rect width="550" height="276.846" fill="white"/>
</clipPath>
</defs>
</svg>
