<svg width="540" height="480" viewBox="0 0 540 480" fill="none" xmlns="http://www.w3.org/2000/svg">
<g clip-path="url(#clip0_307_2328)">
<path d="M536 278.241H123.688C122.627 278.239 121.61 277.773 120.86 276.944C120.11 276.115 119.689 274.992 119.688 273.819V4.4212C119.689 3.24902 120.11 2.12521 120.86 1.29635C121.61 0.467493 122.627 0.00127961 123.688 0H536C537.06 0.00127961 538.077 0.467495 538.827 1.29635C539.577 2.12521 539.999 3.24902 540 4.4212V273.819C539.999 274.992 539.577 276.115 538.827 276.944C538.077 277.773 537.06 278.239 536 278.241ZM123.688 1.76848C123.052 1.76925 122.441 2.04897 121.991 2.54629C121.541 3.0436 121.288 3.71789 121.288 4.4212V273.819C121.288 274.523 121.541 275.197 121.991 275.694C122.441 276.192 123.052 276.471 123.688 276.472H536C536.636 276.471 537.246 276.192 537.696 275.694C538.146 275.197 538.399 274.523 538.4 273.819V4.4212C538.399 3.71789 538.146 3.04361 537.696 2.54629C537.246 2.04898 536.636 1.76925 536 1.76848H123.688Z" fill="#E6E6E6"/>
<path d="M290.1 21.5156C289.268 21.531 288.475 21.9071 287.891 22.5628C287.308 23.2184 286.981 24.1012 286.981 25.0208C286.981 25.9404 287.308 26.8231 287.891 27.4788C288.475 28.1344 289.268 28.5105 290.1 28.5259H369.621C370.46 28.5396 371.271 28.1849 371.874 27.5396C372.477 26.8943 372.824 26.011 372.839 25.0833C372.854 24.1556 372.536 23.2592 371.954 22.5905C371.372 21.9217 370.574 21.5353 369.734 21.5158L369.725 21.5156C369.69 21.515 369.656 21.515 369.621 21.5156H290.1Z" fill="#3F3D56"/>
<path d="M387.655 20.5394C387.538 20.6688 387.472 20.8442 387.472 21.0271C387.472 21.21 387.537 21.3854 387.655 21.5148L390.334 24.4758H383.727C383.562 24.4763 383.404 24.5493 383.287 24.6786C383.17 24.8078 383.105 24.983 383.105 25.1655C383.105 25.3481 383.17 25.5232 383.287 25.6525C383.404 25.7818 383.562 25.8547 383.727 25.8553H390.334L387.655 28.8162C387.597 28.8803 387.551 28.9563 387.519 29.04C387.488 29.1237 387.472 29.2134 387.472 29.304C387.472 29.3945 387.488 29.4842 387.519 29.5679C387.551 29.6516 387.597 29.7276 387.655 29.7917C387.713 29.8557 387.781 29.9065 387.857 29.9412C387.933 29.9759 388.014 29.9937 388.096 29.9937C388.178 29.9937 388.259 29.9759 388.335 29.9412C388.41 29.9066 388.479 29.8557 388.537 29.7917L392.282 25.6533C392.399 25.5239 392.465 25.3485 392.465 25.1656C392.465 24.9826 392.399 24.8072 392.282 24.6778L388.537 20.5394C388.479 20.4754 388.41 20.4246 388.335 20.3899C388.259 20.3552 388.178 20.3374 388.096 20.3374C388.014 20.3374 387.933 20.3552 387.857 20.3899C387.781 20.4246 387.713 20.4754 387.655 20.5394Z" fill="#E6E6E6"/>
<path d="M272.033 20.5394C272.15 20.6688 272.216 20.8442 272.216 21.0271C272.216 21.21 272.15 21.3855 272.033 21.5148L269.354 24.4758H275.96C276.043 24.4755 276.124 24.493 276.2 24.5275C276.276 24.5619 276.345 24.6126 276.403 24.6766C276.461 24.7406 276.507 24.8166 276.539 24.9004C276.571 24.9842 276.587 25.074 276.587 25.1647C276.587 25.2555 276.571 25.3453 276.54 25.4292C276.508 25.513 276.462 25.5892 276.404 25.6534C276.346 25.7175 276.277 25.7684 276.201 25.803C276.125 25.8377 276.044 25.8554 275.962 25.8553H269.354L272.033 28.8163C272.091 28.8803 272.137 28.9563 272.168 29.04C272.2 29.1237 272.216 29.2134 272.216 29.304C272.216 29.3946 272.2 29.4842 272.168 29.5679C272.137 29.6516 272.091 29.7276 272.033 29.7917C271.975 29.8557 271.906 29.9066 271.831 29.9412C271.755 29.9759 271.674 29.9937 271.592 29.9937C271.51 29.9937 271.429 29.9759 271.353 29.9412C271.277 29.9066 271.208 29.8558 271.15 29.7917L267.406 25.6533C267.289 25.5239 267.223 25.3485 267.223 25.1656C267.223 24.9826 267.289 24.8072 267.406 24.6778L271.15 20.5394C271.268 20.4101 271.426 20.3374 271.592 20.3374C271.757 20.3374 271.916 20.4101 272.033 20.5394Z" fill="#E6E6E6"/>
<path d="M119.449 293.08C115.833 293.08 112.299 291.895 109.292 289.675C106.286 287.455 103.943 284.3 102.56 280.608C101.176 276.917 100.814 272.854 101.519 268.935C102.225 265.016 103.966 261.416 106.522 258.591C109.079 255.765 112.336 253.841 115.882 253.062C119.428 252.282 123.104 252.682 126.444 254.211C129.785 255.74 132.64 258.33 134.648 261.652C136.657 264.975 137.729 268.881 137.729 272.877C137.729 278.235 135.803 283.374 132.375 287.163C128.947 290.952 124.297 293.08 119.449 293.08Z" fill="#2A9D8F"/>
<path d="M126.662 270.884H121.252V264.905C121.252 264.377 121.062 263.87 120.724 263.496C120.386 263.122 119.927 262.912 119.449 262.912C118.971 262.912 118.512 263.122 118.174 263.496C117.836 263.87 117.646 264.377 117.646 264.905V270.884H112.236C111.758 270.884 111.299 271.094 110.961 271.468C110.623 271.841 110.433 272.348 110.433 272.877C110.433 273.405 110.623 273.912 110.961 274.286C111.299 274.66 111.758 274.87 112.236 274.87H117.646V280.849C117.646 281.377 117.836 281.884 118.174 282.258C118.512 282.632 118.971 282.842 119.449 282.842C119.927 282.842 120.386 282.632 120.724 282.258C121.062 281.884 121.252 281.377 121.252 280.849V274.87H126.662C127.14 274.87 127.599 274.66 127.937 274.286C128.275 273.912 128.465 273.405 128.465 272.877C128.465 272.348 128.275 271.841 127.937 271.468C127.599 271.094 127.14 270.884 126.662 270.884Z" fill="white"/>
<path d="M207.964 57.4033H153.024V98.6678H207.964V57.4033Z" fill="#F1F1F1"/>
<path d="M282.639 57.4033H227.699V98.6678H282.639V57.4033Z" fill="#F1F1F1"/>
<path d="M357.313 57.4033H302.374V98.6678H357.313V57.4033Z" fill="#F1F1F1"/>
<path d="M431.988 57.4033H377.049V98.6678H431.988V57.4033Z" fill="#F1F1F1"/>
<path d="M506.663 57.4033H451.724V98.6678H506.663V57.4033Z" fill="#F1F1F1"/>
<path d="M208.165 129.911H153.226V171.176H208.165V129.911Z" fill="#F1F1F1"/>
<path d="M282.84 129.911H227.901V171.176H282.84V129.911Z" fill="#F1F1F1"/>
<path d="M357.515 129.911H302.576V171.176H357.515V129.911Z" fill="#F1F1F1"/>
<path d="M432.19 129.911H377.25V171.176H432.19V129.911Z" fill="#F1F1F1"/>
<path d="M506.865 129.911H451.925V171.176H506.865V129.911Z" fill="#F1F1F1"/>
<path d="M208.367 202.418H153.428V243.683H208.367V202.418Z" fill="#F1F1F1"/>
<path d="M283.041 202.418H228.102V243.683H283.041V202.418Z" fill="#F1F1F1"/>
<path d="M357.716 202.418H302.777V243.683H357.716V202.418Z" fill="#F1F1F1"/>
<path d="M432.391 202.418H377.452V243.683H432.391V202.418Z" fill="#F1F1F1"/>
<path d="M507.066 202.418H452.126V243.683H507.066V202.418Z" fill="#F1F1F1"/>
<path d="M313.777 78.0358C317.606 78.0358 320.711 74.6048 320.711 70.3724C320.711 66.14 317.606 62.709 313.777 62.709C309.947 62.709 306.843 66.14 306.843 70.3724C306.843 74.6048 309.947 78.0358 313.777 78.0358Z" fill="#2A9D8F"/>
<path d="M238.035 150.543C241.865 150.543 244.969 147.112 244.969 142.88C244.969 138.647 241.865 135.216 238.035 135.216C234.206 135.216 231.101 138.647 231.101 142.88C231.101 147.112 234.206 150.543 238.035 150.543Z" fill="#2A9D8F"/>
<path d="M313.777 223.051C317.606 223.051 320.711 219.62 320.711 215.388C320.711 211.155 317.606 207.724 313.777 207.724C309.947 207.724 306.843 211.155 306.843 215.388C306.843 219.62 309.947 223.051 313.777 223.051Z" fill="#2A9D8F"/>
<path d="M390.052 150.543C393.881 150.543 396.986 147.112 396.986 142.88C396.986 138.647 393.881 135.216 390.052 135.216C386.222 135.216 383.118 138.647 383.118 142.88C383.118 147.112 386.222 150.543 390.052 150.543Z" fill="#3F3D56"/>
<path d="M464.193 150.543C468.022 150.543 471.127 147.112 471.127 142.88C471.127 138.647 468.022 135.216 464.193 135.216C460.363 135.216 457.259 138.647 457.259 142.88C457.259 147.112 460.363 150.543 464.193 150.543Z" fill="#3F3D56"/>
<path d="M238.035 223.051C241.865 223.051 244.969 219.62 244.969 215.388C244.969 211.155 241.865 207.724 238.035 207.724C234.206 207.724 231.101 211.155 231.101 215.388C231.101 219.62 234.206 223.051 238.035 223.051Z" fill="#3F3D56"/>
<path d="M56.2286 288.582C63.3415 288.582 69.1077 282.21 69.1077 274.349C69.1077 266.488 63.3415 260.115 56.2286 260.115C49.1157 260.115 43.3496 266.488 43.3496 274.349C43.3496 282.21 49.1157 288.582 56.2286 288.582Z" fill="#FFB8B8"/>
<path d="M51.5787 358.572C51.4165 358.572 51.2536 358.564 51.0899 358.548C50.2799 358.473 49.4934 358.21 48.7818 357.776C48.0702 357.342 47.4496 356.747 46.9607 356.029C46.4718 355.311 46.1256 354.488 45.9449 353.612C45.7641 352.736 45.7529 351.828 45.9118 350.947C45.9494 350.742 45.9967 350.54 46.0534 350.341L27.045 325.495C26.4257 324.679 26.0608 323.664 26.0047 322.601C25.9485 321.538 26.204 320.483 26.7333 319.593L26.7678 319.547L43.8776 300.901C44.8119 299.884 46.0732 299.319 47.3842 299.33C48.6953 299.341 49.9489 299.927 50.8694 300.958C51.7899 301.99 52.3021 303.384 52.2933 304.833C52.2845 306.282 51.7555 307.668 50.8226 308.686C50.8011 308.709 50.7795 308.732 50.7576 308.755L38.3656 321.775L51.9318 345.839C52.1888 345.854 52.4444 345.889 52.697 345.943C54.1003 346.252 55.3494 347.127 56.2019 348.398C57.0543 349.668 57.4492 351.243 57.3098 352.817C57.1704 354.391 56.5068 355.851 55.4477 356.915C54.3886 357.978 53.0097 358.569 51.5787 358.572Z" fill="#FFB8B8"/>
<path d="M77.4396 472.445H83.8686L86.9267 445.041L77.4385 445.041L77.4396 472.445Z" fill="#FFB8B8"/>
<path d="M75.7998 470.126L88.46 470.125C89.5195 470.125 90.5692 470.356 91.548 470.804C92.5269 471.252 93.4163 471.908 94.1655 472.736C94.9147 473.564 95.509 474.547 95.9145 475.629C96.32 476.711 96.5287 477.87 96.5287 479.041V479.331L75.8002 479.332L75.7998 470.126Z" fill="#2F2E41"/>
<path d="M13.543 462.622L19.0666 466.257L34.3808 444.44L26.2282 439.076L13.543 462.622Z" fill="#FFB8B8"/>
<path d="M13.208 459.702L24.0861 466.86C25.9246 468.069 27.2534 470.037 27.7794 472.329C28.3054 474.622 27.9859 477.051 26.8912 479.083L26.7569 479.332L8.94629 467.612L13.208 459.702Z" fill="#2F2E41"/>
<path d="M85.3857 462.766H78.187C77.6041 462.767 77.0415 462.529 76.6082 462.098C76.1748 461.667 75.9013 461.074 75.8406 460.434L68.5833 385.04C68.565 384.85 68.4907 384.672 68.3719 384.534C68.253 384.395 68.0963 384.304 67.9258 384.274C67.7553 384.243 67.5805 384.276 67.4284 384.366C67.2763 384.457 67.1554 384.6 67.0842 384.774L53.9919 416.813L30.8127 458.585C30.5127 459.121 30.0482 459.519 29.5043 459.707C28.9603 459.895 28.3734 459.86 27.8508 459.609L18.5909 455.106C18.2847 454.957 18.0107 454.738 17.787 454.463C17.5633 454.188 17.395 453.864 17.2933 453.511C17.1916 453.159 17.1589 452.787 17.1972 452.42C17.2355 452.052 17.344 451.698 17.5155 451.381L38.8236 411.95L45.3586 378.727C43.3033 364.319 52.1145 342.899 52.2038 342.684L52.2475 342.579L76.5183 332.095L76.64 332.26C86.2118 366.975 92.0443 404.333 87.7377 460.377C87.6846 461.027 87.4143 461.632 86.9794 462.073C86.5445 462.515 85.9763 462.762 85.3857 462.766Z" fill="#2F2E41"/>
<path d="M51.2693 346.09L51.1563 345.827C51.1023 345.702 45.7055 333.122 41.5452 319.677C40.7457 317.077 40.4434 314.322 40.6576 311.586C40.8718 308.85 41.5977 306.193 42.7894 303.784C43.9967 301.349 45.6482 299.218 47.6395 297.526C49.6307 295.834 51.9183 294.617 54.3573 293.953C58.5914 292.831 63.0493 293.428 66.9186 295.634C70.788 297.841 73.8114 301.51 75.4379 305.974C78.7379 315.094 77.6861 324.829 76.6964 332.484L76.6767 332.637L76.5505 332.704L51.2693 346.09Z" fill="#2A9D8F"/>
<path d="M71.8439 266.309H51.3936V256.457C55.8822 254.486 60.2745 252.81 62.9297 256.457C65.2939 256.457 67.5612 257.495 69.233 259.342C70.9047 261.19 71.8439 263.696 71.8439 266.309Z" fill="#2F2E41"/>
<path d="M50.2609 254.718C38.0352 254.718 34.6133 271.654 34.6133 281.209C34.6133 286.537 36.7937 288.443 40.22 289.088L41.4301 281.956L44.2642 289.395C45.2266 289.4 46.2377 289.38 47.2859 289.358L48.2468 287.171L50.3896 289.319C58.9718 289.333 65.9082 290.716 65.9082 281.209C65.9082 271.654 62.9072 254.718 50.2609 254.718Z" fill="#2F2E41"/>
<path d="M104.603 273.673C104.681 273.83 104.752 273.992 104.818 274.158C105.147 274.98 105.316 275.869 105.312 276.767C105.309 277.665 105.133 278.553 104.798 279.371C104.462 280.189 103.974 280.92 103.365 281.515C102.757 282.11 102.041 282.556 101.265 282.825C101.085 282.886 100.901 282.937 100.716 282.978L90.1004 313.326C89.7495 314.318 89.1185 315.158 88.3012 315.722C87.4839 316.286 86.5237 316.544 85.5632 316.458L85.5099 316.447L62.5013 308.792C61.2452 308.374 60.1909 307.421 59.5702 306.144C58.9495 304.867 58.8133 303.37 59.1915 301.982C59.5697 300.593 60.4314 299.428 61.587 298.742C62.7426 298.056 64.0974 297.906 65.3534 298.324C65.3821 298.333 65.4107 298.343 65.4393 298.353L81.7191 304.13L94.3229 279.435C94.2115 279.179 94.1165 278.914 94.0387 278.643C93.6118 277.134 93.7076 275.503 94.3075 274.067C94.9075 272.631 95.9689 271.493 97.2855 270.874C98.602 270.254 100.08 270.198 101.432 270.715C102.784 271.232 103.914 272.286 104.603 273.673Z" fill="#FFB8B8"/>
<path d="M107.271 480H0.555809C0.4084 480 0.267027 479.935 0.162792 479.82C0.0585579 479.705 0 479.549 0 479.386C0 479.223 0.0585579 479.067 0.162792 478.951C0.267027 478.836 0.4084 478.771 0.555809 478.771H107.271C107.419 478.771 107.56 478.836 107.664 478.951C107.768 479.067 107.827 479.223 107.827 479.386C107.827 479.549 107.768 479.705 107.664 479.82C107.56 479.935 107.419 480 107.271 480Z" fill="#CCCCCC"/>
</g>
<defs>
<clipPath id="clip0_307_2328">
<rect width="540" height="480" fill="white"/>
</clipPath>
</defs>
</svg>
