<svg width="415" height="250" viewBox="0 0 415 250" fill="none" xmlns="http://www.w3.org/2000/svg">
<g clip-path="url(#clip0_307_1670)">
<path d="M250.189 221.341L235.233 225.287L250.297 216.175C249.973 201.65 244.819 186.588 244.819 186.588C244.819 186.588 212.624 195.761 204.174 211.647C195.725 227.532 202.376 238.02 214.22 244.114C226.064 250.209 238.615 249.603 247.065 233.717C248.946 230.181 249.876 225.884 250.189 221.341Z" fill="#F2F2F2"/>
<path d="M232.374 224.446L231.957 225.229C227.069 234.306 221.731 240.605 216.009 244.029C215.926 244.081 215.842 244.126 215.759 244.178L215.526 243.796L215.306 243.426C221.575 239.774 226.837 232.76 231.103 224.844C231.243 224.59 231.385 224.332 231.519 224.071C233.295 220.704 234.894 217.197 236.316 213.722C236.428 213.454 236.539 213.18 236.65 212.906C238.502 208.31 240.046 203.802 241.284 199.832C241.373 199.552 241.458 199.27 241.541 198.991C243.608 192.264 244.755 187.211 245.001 186.088C245.033 185.952 245.048 185.876 245.053 185.858L245.483 185.946L245.489 185.945L245.923 186.035C245.919 186.052 245.868 186.308 245.76 186.775C245.365 188.527 244.244 193.258 242.396 199.308C242.312 199.581 242.227 199.863 242.138 200.143C241.137 203.365 239.94 206.927 238.543 210.592C238.194 211.513 237.838 212.417 237.478 213.302C237.371 213.578 237.261 213.852 237.148 214.12C235.612 217.877 234.02 221.319 232.374 224.446Z" fill="white"/>
<path d="M242.396 199.308C242.114 199.207 241.827 199.104 241.541 198.991C240.763 198.686 240.001 198.342 239.258 197.96C236.092 196.336 233.337 194.034 231.195 191.224C230.921 191.344 230.646 191.464 230.365 191.586C232.601 194.574 235.502 197.019 238.846 198.735C239.639 199.143 240.453 199.509 241.284 199.832C241.567 199.943 241.853 200.046 242.138 200.143C244.481 200.957 246.937 201.416 249.42 201.505C249.364 201.205 249.31 200.91 249.257 200.622C246.917 200.518 244.605 200.076 242.396 199.308Z" fill="white"/>
<path d="M237.478 213.302C237.198 213.178 236.922 213.046 236.65 212.906C236.565 212.867 236.478 212.822 236.395 212.78C232.967 211.016 230.023 208.463 227.815 205.338C225.607 202.213 224.199 198.609 223.713 194.834C223.434 194.982 223.155 195.129 222.877 195.283C223.429 199.133 224.905 202.799 227.185 205.977C229.464 209.154 232.48 211.752 235.983 213.555C236.093 213.612 236.204 213.669 236.316 213.722C236.594 213.86 236.87 213.992 237.148 214.12C241.469 216.073 246.27 216.761 250.978 216.102C250.973 215.808 250.969 215.514 250.96 215.219C246.372 215.884 241.687 215.218 237.478 213.302Z" fill="white"/>
<path d="M232.374 224.446C232.085 224.327 231.801 224.201 231.519 224.07C231.217 223.93 230.918 223.786 230.622 223.633C226.018 221.258 222.321 217.479 220.083 212.864C217.845 208.248 217.187 203.044 218.208 198.03C217.864 198.253 217.522 198.471 217.185 198.698C216.333 203.786 217.133 209.009 219.471 213.625C221.809 218.24 225.567 222.013 230.21 224.409C230.505 224.561 230.803 224.709 231.103 224.844C231.387 224.98 231.671 225.106 231.957 225.229C237.758 227.667 244.283 227.847 250.213 225.731C250.283 225.401 250.339 225.07 250.397 224.734C244.58 226.947 238.115 226.843 232.374 224.446Z" fill="white"/>
<path d="M53.7826 222.718L68.7389 226.665L53.6744 217.553C53.9985 203.028 59.1531 187.966 59.1531 187.966C59.1531 187.966 91.3478 197.139 99.7974 213.025C108.247 228.91 101.596 239.397 89.7519 245.492C77.908 251.587 65.3563 250.981 56.9067 235.095C55.026 231.559 54.0955 227.262 53.7826 222.718Z" fill="#F2F2F2"/>
<path d="M71.5981 225.824L72.0146 226.607C76.9032 235.684 82.2411 241.982 87.9631 245.407C88.0457 245.458 88.1301 245.504 88.2126 245.555L88.4462 245.173L88.6661 244.803C82.3967 241.152 77.1349 234.138 72.8689 226.221C72.7289 225.967 72.5868 225.71 72.4526 225.448C70.6768 222.081 69.0774 218.574 67.6557 215.099C67.5433 214.831 67.4327 214.557 67.3222 214.283C65.4697 209.687 63.9252 205.179 62.6873 201.21C62.5985 200.929 62.5136 200.647 62.4309 200.369C60.3635 193.642 59.2167 188.588 58.971 187.466C58.9386 187.329 58.9232 187.253 58.919 187.236L58.4889 187.324L58.4829 187.322L58.0488 187.412C58.0531 187.43 58.1037 187.685 58.2119 188.153C58.6067 189.905 59.7276 194.635 61.5753 200.686C61.66 200.958 61.7449 201.24 61.8336 201.521C62.8348 204.743 64.0314 208.304 65.4287 211.969C65.7782 212.891 66.1333 213.794 66.494 214.68C66.6006 214.956 66.7112 215.23 66.8236 215.498C68.36 219.254 69.9515 222.696 71.5981 225.824Z" fill="white"/>
<path d="M54.7142 201.999C54.6619 202.288 54.6077 202.583 54.5516 202.883C57.0351 202.794 59.4904 202.335 61.8336 201.521C62.1182 201.423 62.4048 201.32 62.6872 201.21C63.5191 200.887 64.3331 200.52 65.1257 200.113C68.4695 198.397 71.3703 195.952 73.6066 192.964C73.3259 192.842 73.0511 192.722 72.7763 192.602C70.6347 195.412 67.8794 197.714 64.7133 199.338C63.9709 199.72 63.209 200.064 62.4308 200.369C62.1444 200.482 61.8578 200.585 61.5752 200.686C59.3665 201.454 57.0545 201.896 54.7142 201.999Z" fill="white"/>
<path d="M53.0113 216.597C53.0028 216.892 52.9984 217.186 52.9939 217.48C57.7016 218.139 62.5029 217.451 66.8236 215.498C67.1017 215.37 67.3777 215.238 67.6557 215.099C67.7681 215.047 67.8784 214.99 67.9888 214.933C71.4919 213.13 74.508 210.532 76.7871 207.355C79.0662 204.177 80.5427 200.511 81.0945 196.661C80.8171 196.507 80.5378 196.359 80.2585 196.212C79.7722 199.987 78.3649 203.591 76.1567 206.716C73.9484 209.84 71.0047 212.394 67.5764 214.158C67.4936 214.2 67.4069 214.245 67.3221 214.284C67.0502 214.424 66.7741 214.556 66.4939 214.68C62.2851 216.596 57.5993 217.262 53.0113 216.597Z" fill="white"/>
<path d="M53.5748 226.112C53.6328 226.448 53.6888 226.779 53.7585 227.109C59.6884 229.225 66.2142 229.045 72.0146 226.607C72.3008 226.484 72.5849 226.358 72.8688 226.222C73.1687 226.087 73.4663 225.939 73.7619 225.787C78.4048 223.391 82.1622 219.618 84.5003 215.002C86.8384 210.387 87.6384 205.164 86.7864 200.076C86.45 199.849 86.1077 199.63 85.7633 199.408C86.7844 204.422 86.1267 209.626 83.8889 214.242C81.6511 218.857 77.9534 222.636 73.3496 225.011C73.054 225.164 72.7543 225.308 72.4525 225.448C72.1704 225.579 71.8863 225.705 71.5981 225.824C65.857 228.221 59.3921 228.325 53.5748 226.112Z" fill="white"/>
<path d="M123.903 233.842L132.807 236.191L123.838 230.767C124.031 222.12 127.1 213.153 127.1 213.153C127.1 213.153 146.266 218.614 151.297 228.071C156.327 237.528 152.367 243.771 145.316 247.4C138.265 251.028 130.793 250.667 125.763 241.21C124.643 239.105 124.089 236.547 123.903 233.842Z" fill="#F2F2F2"/>
<path d="M134.509 235.691L134.757 236.157C137.667 241.561 140.845 245.31 144.251 247.349C144.301 247.38 144.351 247.407 144.4 247.437L144.539 247.21L144.67 246.99C140.938 244.816 137.805 240.64 135.265 235.927C135.182 235.776 135.097 235.623 135.018 235.467C133.96 233.463 133.008 231.375 132.162 229.306C132.095 229.146 132.029 228.983 131.963 228.82C130.86 226.084 129.941 223.4 129.204 221.037C129.151 220.87 129.101 220.702 129.051 220.537C127.821 216.532 127.138 213.524 126.992 212.855C126.972 212.774 126.963 212.729 126.961 212.718L126.705 212.771L126.701 212.77L126.443 212.823C126.445 212.834 126.475 212.986 126.54 213.264C126.775 214.307 127.442 217.123 128.542 220.725C128.592 220.888 128.643 221.056 128.696 221.222C129.292 223.141 130.004 225.261 130.836 227.443C131.044 227.991 131.256 228.529 131.47 229.056C131.534 229.221 131.6 229.384 131.666 229.543C132.581 231.78 133.529 233.829 134.509 235.691Z" fill="white"/>
<path d="M124.458 221.507C124.426 221.679 124.394 221.855 124.361 222.033C125.839 221.98 127.301 221.707 128.696 221.222C128.865 221.165 129.036 221.103 129.204 221.037C129.699 220.845 130.184 220.627 130.656 220.384C132.646 219.363 134.373 217.907 135.705 216.128C135.537 216.056 135.374 215.984 135.21 215.913C133.935 217.586 132.295 218.956 130.41 219.923C129.968 220.15 129.515 220.355 129.051 220.537C128.881 220.604 128.71 220.665 128.542 220.725C127.227 221.182 125.851 221.446 124.458 221.507Z" fill="white"/>
<path d="M123.444 230.197C123.439 230.373 123.436 230.548 123.433 230.723C126.236 231.115 129.094 230.706 131.666 229.543C131.832 229.467 131.996 229.388 132.162 229.306C132.229 229.274 132.294 229.24 132.36 229.207C134.446 228.133 136.241 226.587 137.598 224.695C138.955 222.803 139.834 220.621 140.162 218.329C139.997 218.237 139.831 218.149 139.665 218.062C139.375 220.309 138.537 222.454 137.223 224.315C135.908 226.175 134.156 227.695 132.115 228.745C132.065 228.77 132.014 228.797 131.963 228.82C131.801 228.903 131.637 228.982 131.47 229.056C128.964 230.197 126.175 230.593 123.444 230.197Z" fill="white"/>
<path d="M123.779 235.862C123.814 236.062 123.847 236.259 123.889 236.456C127.419 237.715 131.304 237.608 134.757 236.157C134.927 236.084 135.096 236.008 135.265 235.927C135.444 235.847 135.621 235.759 135.797 235.668C138.561 234.242 140.798 231.996 142.19 229.248C143.582 226.501 144.058 223.391 143.551 220.362C143.351 220.227 143.147 220.097 142.942 219.964C143.55 222.949 143.158 226.048 141.826 228.795C140.494 231.543 138.292 233.793 135.552 235.207C135.376 235.297 135.197 235.383 135.018 235.467C134.85 235.545 134.68 235.62 134.509 235.691C131.091 237.118 127.242 237.179 123.779 235.862Z" fill="white"/>
<path d="M301.747 154.336L301.709 154.333C294.627 153.183 286.76 153.184 277.659 154.335H277.655C277.428 154.337 277.202 154.296 276.992 154.212C276.781 154.129 276.589 154.005 276.427 153.849C276.266 153.692 276.137 153.505 276.049 153.3C275.96 153.094 275.915 152.873 275.914 152.649V144.542C275.914 144.095 276.095 143.666 276.417 143.35C276.738 143.033 277.174 142.855 277.629 142.855C285.644 141.827 293.761 141.828 301.776 142.857H301.779C302.229 142.863 302.658 143.044 302.973 143.359C303.288 143.675 303.464 144.1 303.462 144.542V152.649C303.462 153.097 303.281 153.525 302.96 153.842C302.638 154.158 302.202 154.336 301.747 154.336Z" fill="white"/>
<path d="M301.747 154.336L301.709 154.333C294.627 153.183 286.76 153.184 277.659 154.335H277.655C277.428 154.337 277.202 154.296 276.992 154.212C276.781 154.129 276.589 154.005 276.427 153.849C276.266 153.692 276.137 153.505 276.049 153.3C275.96 153.094 275.915 152.873 275.914 152.649V144.542C275.914 144.095 276.095 143.666 276.417 143.35C276.738 143.033 277.174 142.855 277.629 142.855C285.644 141.827 293.761 141.828 301.776 142.857H301.779C302.229 142.863 302.658 143.044 302.973 143.359C303.288 143.675 303.464 144.1 303.462 144.542V152.649C303.462 153.097 303.281 153.525 302.96 153.842C302.638 154.158 302.202 154.336 301.747 154.336ZM289.382 142.545C285.462 142.538 281.545 142.794 277.661 143.312C277.494 143.309 277.329 143.339 277.174 143.4C277.02 143.46 276.879 143.55 276.76 143.665C276.641 143.779 276.546 143.915 276.481 144.066C276.416 144.217 276.382 144.378 276.381 144.542V152.649C276.381 152.975 276.513 153.287 276.747 153.517C276.981 153.747 277.298 153.877 277.629 153.877C286.738 152.723 294.643 152.723 301.766 153.877C302.093 153.872 302.406 153.74 302.636 153.511C302.866 153.281 302.995 152.972 302.996 152.649V144.542C302.995 144.216 302.864 143.904 302.63 143.674C302.396 143.444 302.078 143.315 301.747 143.314C297.645 142.808 293.516 142.551 289.382 142.545Z" fill="#2A9D8F"/>
<path d="M289.688 151.424C291.493 151.424 292.956 149.984 292.956 148.209C292.956 146.433 291.493 144.994 289.688 144.994C287.883 144.994 286.419 146.433 286.419 148.209C286.419 149.984 287.883 151.424 289.688 151.424Z" fill="#2A9D8F"/>
<path d="M281.283 146.529H278.482C278.296 146.529 278.118 146.456 277.987 146.327C277.855 146.198 277.781 146.023 277.781 145.84V144.922C277.781 144.739 277.855 144.564 277.987 144.435C278.118 144.306 278.296 144.233 278.482 144.233H281.283C281.469 144.233 281.647 144.306 281.778 144.435C281.91 144.564 281.983 144.739 281.984 144.922V145.84C281.983 146.023 281.91 146.198 281.778 146.327C281.647 146.456 281.469 146.529 281.283 146.529Z" fill="#2A9D8F"/>
<path d="M300.894 152.959H298.093C297.907 152.959 297.729 152.886 297.598 152.757C297.466 152.628 297.393 152.453 297.392 152.27V151.351C297.393 151.169 297.466 150.994 297.598 150.865C297.729 150.735 297.907 150.663 298.093 150.663H300.894C301.08 150.663 301.258 150.735 301.389 150.865C301.521 150.994 301.595 151.169 301.595 151.351V152.27C301.595 152.453 301.521 152.628 301.389 152.757C301.258 152.886 301.08 152.959 300.894 152.959Z" fill="#2A9D8F"/>
<path d="M297.761 150.983L297.727 150.966C291.658 147.198 284.41 144.189 275.569 141.768L275.566 141.767C275.356 141.682 275.164 141.558 275.003 141.4C274.842 141.243 274.714 141.056 274.627 140.849C274.54 140.643 274.495 140.422 274.495 140.199C274.495 139.975 274.541 139.754 274.628 139.548L277.833 132.079C278.011 131.667 278.347 131.341 278.768 131.173C279.19 131.004 279.662 131.007 280.081 131.181C287.871 133.299 295.349 136.405 302.326 140.418L302.329 140.42C302.741 140.598 303.065 140.928 303.23 141.339C303.396 141.75 303.39 142.209 303.214 142.616L300.008 150.085C299.831 150.497 299.495 150.823 299.073 150.991C298.652 151.16 298.18 151.157 297.761 150.983Z" fill="white"/>
<path d="M297.761 150.983L297.727 150.966C291.658 147.198 284.41 144.189 275.569 141.768L275.566 141.767C275.356 141.682 275.164 141.558 275.003 141.4C274.842 141.243 274.714 141.056 274.627 140.849C274.54 140.643 274.495 140.422 274.495 140.199C274.495 139.975 274.541 139.754 274.628 139.548L277.833 132.079C278.011 131.667 278.347 131.341 278.768 131.173C279.19 131.004 279.662 131.007 280.081 131.181C287.871 133.299 295.349 136.405 302.326 140.418L302.329 140.42C302.741 140.598 303.065 140.928 303.23 141.339C303.396 141.75 303.39 142.209 303.214 142.616L300.008 150.085C299.831 150.497 299.495 150.823 299.073 150.991C298.652 151.16 298.18 151.157 297.761 150.983ZM291.031 135.39C287.422 133.884 283.713 132.623 279.929 131.614C279.777 131.548 279.613 131.512 279.447 131.509C279.28 131.505 279.115 131.534 278.96 131.594C278.805 131.654 278.664 131.743 278.545 131.857C278.425 131.971 278.33 132.107 278.264 132.257L275.058 139.726C274.93 140.027 274.928 140.364 275.052 140.666C275.177 140.968 275.418 141.208 275.723 141.335C284.571 143.756 291.854 146.78 297.96 150.567C298.264 150.688 298.604 150.686 298.906 150.563C299.209 150.439 299.45 150.204 299.578 149.907L302.784 142.437C302.912 142.137 302.914 141.8 302.79 141.498C302.665 141.196 302.424 140.956 302.119 140.829C298.54 138.794 294.837 136.977 291.031 135.39Z" fill="#2A9D8F"/>
<path d="M289.074 143.94C290.879 143.94 292.342 142.501 292.342 140.726C292.342 138.95 290.879 137.511 289.074 137.511C287.269 137.511 285.805 138.95 285.805 140.726C285.805 142.501 287.269 143.94 289.074 143.94Z" fill="#2A9D8F"/>
<path d="M281.995 135.963L279.414 134.892C279.243 134.82 279.108 134.685 279.038 134.516C278.968 134.347 278.969 134.157 279.041 133.989L279.404 133.143C279.477 132.975 279.614 132.842 279.786 132.773C279.958 132.704 280.151 132.705 280.322 132.776L282.903 133.848C283.074 133.919 283.209 134.054 283.279 134.223C283.349 134.392 283.348 134.582 283.276 134.75L282.913 135.597C282.84 135.765 282.703 135.898 282.531 135.967C282.359 136.035 282.166 136.034 281.995 135.963Z" fill="#2A9D8F"/>
<path d="M297.52 149.388L294.939 148.316C294.768 148.245 294.633 148.11 294.563 147.941C294.493 147.771 294.494 147.582 294.566 147.413L294.929 146.567C295.002 146.399 295.139 146.266 295.311 146.197C295.483 146.128 295.676 146.13 295.847 146.2L298.428 147.272C298.599 147.343 298.734 147.478 298.804 147.648C298.874 147.817 298.873 148.006 298.801 148.175L298.438 149.021C298.365 149.189 298.228 149.322 298.056 149.391C297.884 149.46 297.691 149.458 297.52 149.388Z" fill="#2A9D8F"/>
<path d="M304.193 146.545C304.781 146.197 305.285 145.726 305.668 145.166C306.051 144.605 306.305 143.969 306.411 143.302C306.517 142.635 306.473 141.954 306.283 141.305C306.092 140.656 305.759 140.057 305.307 139.549L313.576 125.294L304.923 125.844L298.398 139.296C297.58 140.099 297.09 141.169 297.02 142.304C296.951 143.438 297.308 144.559 298.022 145.452C298.736 146.346 299.759 146.95 300.897 147.152C302.034 147.353 303.207 147.137 304.193 146.545Z" fill="#FFB6B6"/>
<path d="M367.846 243.72H362.121L359.398 222.003L367.847 222.003L367.846 243.72Z" fill="#FFB6B6"/>
<path d="M369.306 249.178L350.848 249.178V248.948C350.848 247.074 351.605 245.277 352.952 243.952C354.299 242.626 356.127 241.882 358.032 241.882H358.033L369.306 241.882L369.306 249.178Z" fill="#2F2E41"/>
<path d="M328.624 243.72H322.899L320.176 222.003L328.625 222.003L328.624 243.72Z" fill="#FFB6B6"/>
<path d="M330.084 249.178L311.625 249.178V248.948C311.626 247.074 312.383 245.277 313.73 243.952C315.077 242.626 316.905 241.882 318.81 241.882H318.81L330.084 241.882L330.084 249.178Z" fill="#2F2E41"/>
<path d="M313.904 125.907C313.904 125.907 312.329 147.961 315.43 159.068C318.531 170.175 319.085 237.344 319.085 237.344H329.48L338.489 145.913L359.259 237.667L369.16 236.997L363.73 128.877L313.904 125.907Z" fill="#2F2E41"/>
<path d="M359.435 51.5634L351.488 45.8599L338.173 48.7116L334.568 57.1354L328.358 60.1642C326.315 61.1601 324.55 62.6288 323.212 64.4441C321.874 66.2594 321.005 68.367 320.678 70.5859L311.805 130.852L363.73 128.878L370.017 57.9027C370.082 57.1613 369.996 56.4144 369.763 55.7064C369.53 54.9983 369.155 54.3435 368.66 53.7805C368.165 53.2175 367.561 52.7579 366.882 52.4289C366.203 52.0999 365.464 51.9081 364.709 51.8649L359.435 51.5634Z" fill="#E4E4E4"/>
<path d="M325.072 64.8716L320.276 71.2305L299.387 133.894L309.179 137.75L324.857 108.55L325.072 64.8716Z" fill="#E4E4E4"/>
<path d="M342.242 42.1748C351.019 42.1748 358.135 35.1762 358.135 26.543C358.135 17.9097 351.019 10.9111 342.242 10.9111C333.464 10.9111 326.349 17.9097 326.349 26.543C326.349 35.1762 333.464 42.1748 342.242 42.1748Z" fill="#2F2E41"/>
<path d="M342.456 42.8819C348.862 42.8819 354.054 37.7748 354.054 31.4749C354.054 25.175 348.862 20.0679 342.456 20.0679C336.051 20.0679 330.859 25.175 330.859 31.4749C330.859 37.7748 336.051 42.8819 342.456 42.8819Z" fill="#FFB9B9"/>
<path d="M351.262 29.996C343.877 27.3761 341.378 25.7667 333.221 29.996L330.214 18.1665H354.269L351.262 29.996Z" fill="#2F2E41"/>
<path d="M340.953 19.8566C345.935 19.8566 349.973 15.8844 349.973 10.9844C349.973 6.08449 345.935 2.1123 340.953 2.1123C335.971 2.1123 331.933 6.08449 331.933 10.9844C331.933 15.8844 335.971 19.8566 340.953 19.8566Z" fill="#2F2E41"/>
<path d="M330.214 8.87213C330.216 6.59365 331.109 4.40307 332.708 2.75502C334.308 1.10697 336.491 0.128014 338.805 0.0213245C338.662 0.0146652 338.521 0 338.376 0C335.983 0 333.689 0.93474 331.997 2.59859C330.306 4.26243 329.355 6.51909 329.355 8.87212C329.355 11.2252 330.306 13.4818 331.997 15.1457C333.689 16.8095 335.983 17.7442 338.376 17.7442C338.521 17.7442 338.662 17.7296 338.805 17.7229C336.491 17.6162 334.308 16.6373 332.708 14.9892C331.109 13.3412 330.216 11.1506 330.214 8.87213Z" fill="#2F2E41"/>
<path opacity="0.1" d="M363.312 68.4805L360.077 100.208L348.649 122.361L363.312 68.4805Z" fill="black"/>
<path d="M21.2453 166.13H18.4437V168.427H21.2453V166.13Z" fill="#F0F0F0"/>
<path d="M286.242 168.427H280.721V166.13H286.242V168.427ZM275.201 168.427H269.68V166.13H275.201V168.427ZM264.159 168.427H258.638V166.13H264.159V168.427ZM253.118 168.427H247.597V166.13H253.118V168.427ZM242.076 168.427H236.555V166.13H242.076V168.427ZM231.034 168.427H225.514V166.13H231.034L231.034 168.427ZM219.993 168.427H214.472V166.13H219.993V168.427ZM208.951 168.427H203.431V166.13H208.951V168.427ZM197.91 168.427H192.389V166.13H197.91V168.427ZM186.868 168.427H181.347V166.13H186.868L186.868 168.427ZM175.827 168.427H170.306V166.13H175.827L175.827 168.427ZM164.785 168.427H159.264V166.13H164.785L164.785 168.427ZM153.744 168.427H148.223V166.13H153.744L153.744 168.427ZM142.702 168.427H137.181V166.13H142.702L142.702 168.427ZM131.661 168.427H126.14V166.13H131.661L131.661 168.427ZM120.619 168.427H115.098V166.13H120.619L120.619 168.427ZM109.578 168.427H104.057V166.13H109.578L109.578 168.427ZM98.536 168.427H93.0153V166.13H98.5362L98.536 168.427ZM87.4943 168.427H81.9738V166.13H87.4944L87.4943 168.427ZM76.4528 168.427H70.9323V166.13H76.4529L76.4528 168.427ZM65.4113 168.427H59.8908V166.13H65.4114L65.4113 168.427ZM54.3698 168.427H48.8491V166.13H54.37L54.3698 168.427ZM43.3283 168.427H37.8076V166.13H43.3285L43.3283 168.427ZM32.2868 168.427H26.7661V166.13H32.287L32.2868 168.427Z" fill="#F0F0F0"/>
<path d="M21.2453 107.805H18.4437V110.101H21.2453V107.805Z" fill="#F0F0F0"/>
<path d="M286.242 110.101H280.721V107.805H286.242V110.101ZM275.201 110.101H269.68V107.805H275.201V110.101ZM264.159 110.101H258.638V107.805H264.159V110.101ZM253.118 110.101H247.597V107.805H253.118V110.101ZM242.076 110.101H236.555V107.805H242.076V110.101ZM231.034 110.101H225.514V107.805H231.034L231.034 110.101ZM219.993 110.101H214.472V107.805H219.993V110.101ZM208.951 110.101H203.431V107.805H208.951V110.101ZM197.91 110.101H192.389V107.805H197.91V110.101ZM186.868 110.101H181.347V107.805H186.868L186.868 110.101ZM175.827 110.101H170.306V107.805H175.827L175.827 110.101ZM164.785 110.101H159.264V107.805H164.785L164.785 110.101ZM153.744 110.101H148.223V107.805H153.744L153.744 110.101ZM142.702 110.101H137.181V107.805H142.702L142.702 110.101ZM131.661 110.101H126.14V107.805H131.661L131.661 110.101ZM120.619 110.101H115.098V107.805H120.619L120.619 110.101ZM109.578 110.101H104.057V107.805H109.578L109.578 110.101ZM98.536 110.101H93.0153V107.805H98.5362L98.536 110.101ZM87.4943 110.101H81.9738V107.805H87.4944L87.4943 110.101ZM76.4528 110.101H70.9323V107.805H76.4529L76.4528 110.101ZM65.4113 110.101H59.8908V107.805H65.4114L65.4113 110.101ZM54.3698 110.101H48.8491V107.805H54.37L54.3698 110.101ZM43.3283 110.101H37.8076V107.805H43.3285L43.3283 110.101ZM32.2868 110.101H26.7661V107.805H32.287L32.2868 110.101Z" fill="#F0F0F0"/>
<path d="M21.2453 49.479H18.4437V51.7753H21.2453V49.479Z" fill="#F0F0F0"/>
<path d="M286.242 51.7753H280.721V49.479H286.242V51.7753ZM275.201 51.7753H269.68V49.479H275.201V51.7753ZM264.159 51.7753H258.638V49.479H264.159V51.7753ZM253.118 51.7753H247.597V49.479H253.118V51.7753ZM242.076 51.7753H236.555V49.479H242.076V51.7753ZM231.034 51.7753H225.514V49.479H231.034L231.034 51.7753ZM219.993 51.7753H214.472V49.479H219.993V51.7753ZM208.951 51.7753H203.431V49.479H208.951V51.7753ZM197.91 51.7753H192.389V49.479H197.91V51.7753ZM186.868 51.7753H181.347V49.479H186.868L186.868 51.7753ZM175.827 51.7753H170.306V49.479H175.827L175.827 51.7753ZM164.785 51.7753H159.264V49.479H164.785L164.785 51.7753ZM153.744 51.7753H148.223V49.479H153.744L153.744 51.7753ZM142.702 51.7753H137.181V49.479H142.702L142.702 51.7753ZM131.661 51.7753H126.14V49.479H131.661L131.661 51.7753ZM120.619 51.7753H115.098V49.479H120.619L120.619 51.7753ZM109.578 51.7753H104.057V49.479H109.578L109.578 51.7753ZM98.536 51.7753H93.0153V49.479H98.5362L98.536 51.7753ZM87.4943 51.7753H81.9738V49.479H87.4944L87.4943 51.7753ZM76.4528 51.7753H70.9323V49.479H76.4529L76.4528 51.7753ZM65.4113 51.7753H59.8908V49.479H65.4114L65.4113 51.7753ZM54.3698 51.7753H48.8491V49.479H54.37L54.3698 51.7753ZM43.3283 51.7753H37.8076V49.479H43.3285L43.3283 51.7753ZM32.2868 51.7753H26.7661V49.479H32.287L32.2868 51.7753Z" fill="#F0F0F0"/>
<path d="M109.729 166.819H86.849V249.486H109.729V166.819Z" fill="#3F3D56"/>
<path d="M113.931 166.819H91.0514V249.486H113.931V166.819Z" fill="#2A9D8F"/>
<path d="M163.893 108.494H141.013V249.486H163.893V108.494Z" fill="#3F3D56"/>
<path d="M168.095 108.494H145.215V249.486H168.095V108.494Z" fill="#2A9D8F"/>
<path d="M218.056 50.168H195.177V249.486H218.056V50.168Z" fill="#3F3D56"/>
<path d="M222.259 50.168H199.379V249.486H222.259V50.168Z" fill="#2A9D8F"/>
<path d="M18.6773 56.1379C21.7718 56.1379 24.2804 53.6705 24.2804 50.6268C24.2804 47.5831 21.7718 45.1157 18.6773 45.1157C15.5827 45.1157 13.0741 47.5831 13.0741 50.6268C13.0741 53.6705 15.5827 56.1379 18.6773 56.1379Z" fill="#F0F0F0"/>
<path d="M18.6773 114.464C21.7718 114.464 24.2804 111.996 24.2804 108.952C24.2804 105.909 21.7718 103.441 18.6773 103.441C15.5827 103.441 13.0741 105.909 13.0741 108.952C13.0741 111.996 15.5827 114.464 18.6773 114.464Z" fill="#F0F0F0"/>
<path d="M18.6773 172.789C21.7718 172.789 24.2804 170.322 24.2804 167.278C24.2804 164.234 21.7718 161.767 18.6773 161.767C15.5827 161.767 13.0741 164.234 13.0741 167.278C13.0741 170.322 15.5827 172.789 18.6773 172.789Z" fill="#F0F0F0"/>
<path d="M414.634 248.971H0V250H414.634V248.971Z" fill="#3F3D56"/>
<path d="M349.841 144.233L349.803 144.23C342.721 143.08 334.854 143.08 325.752 144.231H325.749C325.522 144.234 325.296 144.192 325.086 144.109C324.875 144.025 324.683 143.902 324.521 143.745C324.359 143.588 324.231 143.402 324.142 143.196C324.054 142.99 324.008 142.769 324.007 142.546V134.438C324.008 133.991 324.189 133.562 324.51 133.246C324.832 132.93 325.268 132.752 325.723 132.751C333.738 131.724 341.855 131.724 349.87 132.753H349.873C350.323 132.76 350.751 132.94 351.066 133.256C351.382 133.571 351.558 133.996 351.556 134.438V142.546C351.556 142.993 351.375 143.422 351.053 143.738C350.732 144.054 350.296 144.232 349.841 144.233Z" fill="white"/>
<path d="M349.841 144.233L349.803 144.23C342.721 143.08 334.854 143.08 325.752 144.231H325.749C325.522 144.234 325.296 144.192 325.086 144.109C324.875 144.025 324.683 143.902 324.521 143.745C324.359 143.588 324.231 143.402 324.142 143.196C324.054 142.99 324.008 142.769 324.007 142.546V134.438C324.008 133.991 324.189 133.562 324.51 133.246C324.832 132.93 325.268 132.752 325.723 132.751C333.738 131.724 341.855 131.724 349.87 132.753H349.873C350.323 132.76 350.751 132.94 351.066 133.256C351.382 133.571 351.558 133.996 351.556 134.438V142.546C351.556 142.993 351.375 143.422 351.053 143.738C350.732 144.054 350.296 144.232 349.841 144.233ZM337.476 132.441C333.555 132.434 329.639 132.691 325.754 133.208C325.588 133.206 325.423 133.236 325.268 133.296C325.114 133.357 324.973 133.447 324.854 133.561C324.735 133.676 324.64 133.812 324.575 133.962C324.51 134.113 324.476 134.275 324.474 134.438V142.546C324.475 142.871 324.606 143.183 324.84 143.414C325.074 143.644 325.392 143.773 325.723 143.774C334.832 142.62 342.737 142.619 349.859 143.773C350.187 143.768 350.5 143.637 350.73 143.407C350.96 143.178 351.089 142.868 351.089 142.546V134.438C351.089 134.113 350.957 133.801 350.723 133.571C350.489 133.341 350.172 133.211 349.841 133.211C345.739 132.705 341.61 132.448 337.476 132.441Z" fill="#2A9D8F"/>
<path d="M337.782 141.32C339.587 141.32 341.05 139.88 341.05 138.105C341.05 136.329 339.587 134.89 337.782 134.89C335.977 134.89 334.513 136.329 334.513 138.105C334.513 139.88 335.977 141.32 337.782 141.32Z" fill="#2A9D8F"/>
<path d="M329.377 136.426H326.576C326.39 136.425 326.212 136.353 326.08 136.224C325.949 136.095 325.875 135.919 325.875 135.737V134.818C325.875 134.636 325.949 134.461 326.08 134.331C326.212 134.202 326.39 134.13 326.576 134.129H329.377C329.563 134.13 329.741 134.202 329.872 134.331C330.003 134.461 330.077 134.636 330.077 134.818V135.737C330.077 135.919 330.003 136.095 329.872 136.224C329.741 136.353 329.563 136.425 329.377 136.426Z" fill="#2A9D8F"/>
<path d="M348.988 142.855H346.186C346.001 142.855 345.823 142.782 345.691 142.653C345.56 142.524 345.486 142.349 345.486 142.166V141.247C345.486 141.065 345.56 140.89 345.691 140.761C345.823 140.631 346.001 140.559 346.186 140.559H348.988C349.174 140.559 349.352 140.631 349.483 140.761C349.614 140.89 349.688 141.065 349.688 141.247V142.166C349.688 142.349 349.614 142.524 349.483 142.653C349.352 142.782 349.174 142.855 348.988 142.855Z" fill="#2A9D8F"/>
<path d="M344.592 133.606C344.544 132.932 344.646 132.256 344.893 131.626C345.139 130.996 345.522 130.426 346.017 129.958C346.511 129.489 347.103 129.133 347.753 128.914C348.402 128.695 349.092 128.619 349.775 128.69L356.89 113.846L361.402 121.128L353.954 134.109C353.755 135.228 353.146 136.238 352.241 136.945C351.336 137.652 350.199 138.009 349.045 137.947C347.891 137.885 346.801 137.409 345.98 136.609C345.159 135.808 344.665 134.74 344.592 133.606Z" fill="#FFB6B6"/>
<path d="M363.936 55.9554L366.866 52.1969C366.866 52.1969 374.005 50.7667 375.218 60.4117L374.455 103.29L358.81 127.51L348.649 124.958L361.933 96.1872L363.936 55.9554Z" fill="#E4E4E4"/>
</g>
<defs>
<clipPath id="clip0_307_1670">
<rect width="414.634" height="250" fill="white"/>
</clipPath>
</defs>
</svg>
