<svg width="350" height="300" viewBox="0 0 350 300" fill="none" xmlns="http://www.w3.org/2000/svg">
  <g clip-path="url(#clip0_307_1472)">
    <path d="M16.2632 285.869C21.1181 295.113 31.4218 299.082 31.4218 299.082C31.4218 299.082 33.8543 288.062 28.9994 278.817C24.1446 269.573 13.8408 265.604 13.8408 265.604C13.8408 265.604 11.4084 276.624 16.2632 285.869Z" fill="#2F2E41"/>
    <path d="M19.6002 282.827C28.3652 288.241 31.7409 298.996 31.7409 298.996C31.7409 298.996 20.9057 300.972 12.1407 295.558C3.37568 290.143 0 279.388 0 279.388C0 279.388 10.8352 277.412 19.6002 282.827Z" fill="#2A9D8F"/>
    <path d="M216.113 14.4019H161.425V15.204H216.113V14.4019Z" fill="#F2F2F2"/>
    <path d="M201.269 15.0039H200.488V22.424H201.269V15.0039Z" fill="#F2F2F2"/>
    <path d="M177.441 15.0039H176.66V22.424H177.441V15.0039Z" fill="#F2F2F2"/>
    <path d="M243.847 52.9062H189.16V53.7084H243.847V52.9062Z" fill="#F2F2F2"/>
    <path d="M204.785 45.6865H204.003V53.1066H204.785V45.6865Z" fill="#F2F2F2"/>
    <path d="M228.613 45.6865H227.832V53.1066H228.613V45.6865Z" fill="#F2F2F2"/>
    <path d="M316.503 70.9551H261.816V71.7572H316.503V70.9551Z" fill="#F2F2F2"/>
    <path d="M277.441 63.7354H276.66V71.1554H277.441V63.7354Z" fill="#F2F2F2"/>
    <path d="M301.269 63.7354H300.488V71.1554H301.269V63.7354Z" fill="#F2F2F2"/>
    <path d="M311.035 257.059H256.347V257.861H311.035V257.059Z" fill="#F2F2F2"/>
    <path d="M271.972 249.839H271.191V257.259H271.972V249.839Z" fill="#F2F2F2"/>
    <path d="M295.8 249.839H295.019V257.259H295.8V249.839Z" fill="#F2F2F2"/>
    <path d="M217.675 128.31H162.988V129.112H217.675V128.31Z" fill="#F2F2F2"/>
    <path d="M178.613 121.091H177.832V128.511H178.613V121.091Z" fill="#F2F2F2"/>
    <path d="M202.441 121.091H201.66V128.511H202.441V121.091Z" fill="#F2F2F2"/>
    <path d="M234.863 224.972H180.175V225.774H234.863V224.972Z" fill="#F2F2F2"/>
    <path d="M195.8 217.752H195.019V225.172H195.8V217.752Z" fill="#F2F2F2"/>
    <path d="M219.628 217.752H218.847V225.172H219.628V217.752Z" fill="#F2F2F2"/>
    <path d="M322.363 195.692H267.675V196.495H322.363V195.692Z" fill="#F2F2F2"/>
    <path d="M283.3 188.473H282.519V195.893H283.3V188.473Z" fill="#F2F2F2"/>
    <path d="M307.128 188.473H306.347V195.893H307.128V188.473Z" fill="#F2F2F2"/>
    <path d="M141.43 281.635H48.9351V280.952H140.764V247.815H56.7108L52.6276 239.08L53.2276 238.785L57.1296 247.131H141.43V281.635Z" fill="#2F2E41"/>
    <path d="M61.2456 298.375C65.1044 298.375 68.2326 295.163 68.2326 291.201C68.2326 287.239 65.1044 284.027 61.2456 284.027C57.3867 284.027 54.2585 287.239 54.2585 291.201C54.2585 295.163 57.3867 298.375 61.2456 298.375Z" fill="#3F3D56"/>
    <path d="M130.117 298.375C133.976 298.375 137.104 295.163 137.104 291.201C137.104 287.239 133.976 284.027 130.117 284.027C126.259 284.027 123.13 287.239 123.13 291.201C123.13 295.163 126.259 298.375 130.117 298.375Z" fill="#3F3D56"/>
    <path d="M211.3 143.278C213.688 143.278 215.625 141.289 215.625 138.837C215.625 136.384 213.688 134.396 211.3 134.396C208.911 134.396 206.974 136.384 206.974 138.837C206.974 141.289 208.911 143.278 211.3 143.278Z" fill="#3F3D56"/>
    <path d="M151.323 236.541H47.3582L24.8628 161.042H174.489L174.353 161.487L151.323 236.541ZM47.8505 235.858H150.834L173.582 161.726H25.7622L47.8505 235.858Z" fill="#2F2E41"/>
    <path d="M143.207 232.613H51.8914L32.1328 165.654H163.555L163.436 166.049L143.207 232.613Z" fill="#F2F2F2"/>
    <path d="M176.354 154.297L175.71 154.122L180.101 137.128H205.644V137.812H180.613L176.354 154.297Z" fill="#2F2E41"/>
    <path d="M167.012 183.931H32.1321V184.614H167.012V183.931Z" fill="#2F2E41"/>
    <path d="M159.288 209.103H39.6323V209.786H159.288V209.103Z" fill="#2F2E41"/>
    <path d="M100.007 161.384H99.3413V236.199H100.007V161.384Z" fill="#2F2E41"/>
    <path d="M129.799 161.363L125.022 236.176L125.687 236.221L130.463 161.407L129.799 161.363Z" fill="#2F2E41"/>
    <path d="M69.5628 161.362L68.8987 161.406L73.6476 236.222L74.3118 236.177L69.5628 161.362Z" fill="#2F2E41"/>
    <path d="M350 298.808H0V299.61H350V298.808Z" fill="#2F2E41"/>
    <path d="M232.582 24.8173C232.582 24.8173 238.293 41.505 234.779 44.0723C231.264 46.6396 246.638 67.6061 246.638 67.6061L265.087 62.4715L254.984 44.9281C254.984 44.9281 253.667 27.3846 253.667 24.8173C253.667 22.25 232.582 24.8173 232.582 24.8173Z" fill="#A0616A"/>
    <path opacity="0.1" d="M232.582 24.8173C232.582 24.8173 238.293 41.505 234.779 44.0723C231.264 46.6396 246.638 67.6061 246.638 67.6061L265.087 62.4715L254.984 44.9281C254.984 44.9281 253.667 27.3846 253.667 24.8173C253.667 22.25 232.582 24.8173 232.582 24.8173Z" fill="black"/>
    <path d="M222.997 143.77C222.997 143.77 221.331 165.165 222.997 176.29C224.664 187.415 227.165 218.223 227.165 218.223C227.165 218.223 227.165 276.416 236.333 277.272C245.501 278.127 252.169 278.983 253.002 275.56C253.835 272.137 248.835 270.425 251.335 268.714C253.835 267.002 254.669 261.012 251.335 254.166C248.001 247.319 251.335 178.002 251.335 178.002L267.171 221.646C267.171 221.646 268.838 257.589 270.505 262.723C272.172 267.858 268.838 277.272 274.672 278.127C280.506 278.983 287.174 273.848 290.508 272.137C293.841 270.425 285.507 270.425 287.174 269.57C288.841 268.714 293.841 266.146 292.175 265.291C290.508 264.435 288.841 223.358 288.841 223.358C288.841 223.358 284.257 135.641 278.422 132.217C272.588 128.794 268.838 134.69 268.838 134.69L222.997 143.77Z" fill="#2F2E41"/>
    <path d="M238 273.849V280.695C238 280.695 230.499 299.305 238 299.305C245.501 299.305 251.335 301.233 251.335 298.666V275.56L238 273.849Z" fill="#2F2E41"/>
    <path d="M287.174 273.836V280.683C287.174 280.683 294.675 299.293 287.174 299.293C279.673 299.293 273.839 301.221 273.839 298.654V275.548L287.174 273.836Z" fill="#2F2E41"/>
    <path d="M244.251 37.2264C252.536 37.2264 259.253 30.3298 259.253 21.8224C259.253 13.3151 252.536 6.41846 244.251 6.41846C235.965 6.41846 229.249 13.3151 229.249 21.8224C229.249 30.3298 235.965 37.2264 244.251 37.2264Z" fill="#A0616A"/>
    <path d="M239.667 50.4907C239.667 50.4907 243.834 63.3274 250.502 60.76L257.169 58.1927L268.838 140.347C268.838 140.347 259.67 154.04 246.334 145.482C232.999 136.924 239.667 50.4907 239.667 50.4907Z" fill="#2A9D8F"/>
    <path d="M251.335 47.9233L255.086 39.7935C255.086 39.7935 277.172 50.4907 280.506 53.9138C283.84 57.3369 283.84 62.4715 283.84 62.4715L278.006 83.866C278.006 83.866 279.673 130.934 279.673 132.645C279.673 134.357 285.507 143.77 281.34 140.347C277.172 136.924 276.339 133.501 273.005 138.636C269.671 143.77 262.17 149.761 262.17 149.761L251.335 47.9233Z" fill="#3F3D56"/>
    <path d="M280.506 109.54L278.006 133.501C278.006 133.501 263.004 147.194 266.337 148.049C269.671 148.905 271.338 145.482 271.338 145.482C271.338 145.482 277.172 151.473 280.506 148.049C283.84 144.626 292.175 112.107 292.175 112.107L280.506 109.54Z" fill="#A0616A"/>
    <path d="M244.57 0.0520893C241.245 -0.0699889 237.685 -0.130377 234.881 1.70986C233.591 2.63339 232.459 3.77081 231.533 5.07557C228.802 8.62055 226.442 13.0809 227.456 17.4793L228.635 17.0074C228.635 18.1815 228.38 19.3409 227.89 20.4017C228.056 19.9063 228.612 20.7071 228.463 21.2082L227.165 25.5803C229.299 24.7771 231.953 26.4033 232.278 28.7126C232.426 23.6344 232.939 17.8113 236.951 14.8378C238.975 13.3382 241.535 12.8805 243.999 12.474C246.272 12.099 248.654 11.7414 250.831 12.5096C253.008 13.2779 254.862 15.5639 254.368 17.8725C255.372 17.5175 256.495 18.2357 256.991 19.1995C257.487 20.1633 257.513 21.3002 257.528 22.3902C258.598 23.1666 259.815 21.6248 260.252 20.3562C261.275 17.3784 262.185 14.2086 261.634 11.102C261.082 7.99533 258.617 5.02646 255.541 5.01592C255.914 4.59492 256.114 4.04133 256.097 3.47225L253.562 3.25233C254.205 3.15877 254.797 2.83839 255.236 2.34607C254.218 3.49595 246.216 0.112497 244.57 0.0520893Z" fill="#2F2E41"/>
    <path d="M243.834 45.3563C243.834 45.3563 237.049 38.5295 234.607 38.9477C232.165 39.3658 228.832 45.3563 228.832 45.3563C228.832 45.3563 208.829 52.2025 209.662 59.0487C210.496 65.8949 219.664 99.2702 219.664 99.2702C219.664 99.2702 227.165 139.492 220.497 143.771C213.829 148.049 252.168 159.175 253.002 154.04C253.835 148.905 255.502 97.5587 253.002 89.8567C250.502 82.1547 243.834 45.3563 243.834 45.3563Z" fill="#3F3D56"/>
    <path d="M273.005 59.0488H283.311C283.311 59.0488 290.508 91.5683 291.341 94.9915C292.175 98.4146 293.842 114.674 293.008 114.674C292.175 114.674 275.505 111.251 275.505 113.819L273.005 59.0488Z" fill="#3F3D56"/>
    <path d="M272.656 139.578H233.203C229.353 121.393 229.032 103.822 233.203 87.0356H272.656C266.289 103.521 265.892 120.97 272.656 139.578Z" fill="#F2F2F2"/>
    <path d="M217.163 117.241L228.832 122.376C228.832 122.376 251.335 125.799 251.335 116.386C251.335 106.972 228.832 112.107 228.832 112.107L221.33 109.644L217.163 117.241Z" fill="#A0616A"/>
    <path d="M219.664 53.9141L209.662 56.4814L202.161 101.838C202.161 101.838 199.661 113.818 203.828 114.674C207.995 115.53 219.664 122.376 219.664 122.376C219.664 122.376 221.33 109.54 224.664 109.54L216.33 102.693L221.33 72.7412L219.664 53.9141Z" fill="#3F3D56"/>
    <path d="M78.2222 141.546H23.5347V142.348H78.2222V141.546Z" fill="#F2F2F2"/>
    <path d="M39.1597 134.327H38.3784V141.747H39.1597V134.327Z" fill="#F2F2F2"/>
    <path d="M62.9878 134.327H62.2065V141.747H62.9878V134.327Z" fill="#F2F2F2"/>
    <path d="M97.3628 22.8247H42.6753V23.6269H97.3628V22.8247Z" fill="#F2F2F2"/>
    <path d="M82.519 23.4263H81.7378V30.8463H82.519V23.4263Z" fill="#F2F2F2"/>
    <path d="M58.6909 23.4263H57.9097V30.8463H58.6909V23.4263Z" fill="#F2F2F2"/>
    <path d="M152.441 101.838H97.7534V102.641H152.441V101.838Z" fill="#F2F2F2"/>
    <path d="M137.597 102.44H136.816V109.86H137.597V102.44Z" fill="#F2F2F2"/>
    <path d="M113.769 102.44H112.988V109.86H113.769V102.44Z" fill="#F2F2F2"/>
    <path d="M59.4722 101.438H4.78467V102.24H59.4722V101.438Z" fill="#F2F2F2"/>
    <path d="M44.6284 102.039H43.8472V109.459H44.6284V102.039Z" fill="#F2F2F2"/>
    <path d="M20.8003 102.039H20.019V109.459H20.8003V102.039Z" fill="#F2F2F2"/>
    <path d="M125.097 61.3291H70.4097V62.1313H125.097V61.3291Z" fill="#F2F2F2"/>
    <path d="M86.0347 54.1094H85.2534V61.5294H86.0347V54.1094Z" fill="#F2F2F2"/>
    <path d="M109.863 54.1094H109.082V61.5294H109.863V54.1094Z" fill="#F2F2F2"/>
  </g>
  <defs>
    <clipPath id="clip0_307_1472">
      <rect width="350" height="300" fill="white"/>
    </clipPath>
  </defs>
</svg>
